<svg width="41" height="41" viewBox="0 0 41 41" fill="none" xmlns="http://www.w3.org/2000/svg">
<path d="M20.5 0.5C31.5457 0.5 40.5 9.4543 40.5 20.5C40.5 31.5457 31.5457 40.5 20.5 40.5C9.4543 40.5 0.5 31.5457 0.5 20.5C0.5 9.4543 9.4543 0.5 20.5 0.5Z" stroke="#6B34A5"/>
<path d="M30 15.6996V15.5645C30 14.8843 29.714 14.232 29.205 13.7511C28.696 13.2702 28.0056 13 27.2857 13H13.7143C12.9944 13 12.304 13.2702 11.795 13.7511C11.286 14.232 11 14.8843 11 15.5645V15.6996L19.7889 20.8098C20.0027 20.9341 20.2489 21 20.5 21C20.7511 21 20.9973 20.9341 21.2111 20.8098L30 15.6996Z" fill="black"/>
<path d="M11 17V25.1502C11 25.906 11.286 26.6309 11.795 27.1653C12.304 27.6997 12.9944 28 13.7143 28H27.2857C28.0056 28 28.696 27.6997 29.205 27.1653C29.714 26.6309 30 25.906 30 25.1502V17L21.9223 22.2178C21.4946 22.4941 21.0022 22.6404 20.5 22.6404C19.9978 22.6404 19.5054 22.4941 19.0777 22.2178L11 17Z" fill="black"/>
</svg>
