<svg width="83" height="102" viewBox="0 0 83 102" fill="none" xmlns="http://www.w3.org/2000/svg">
<path d="M82.5 101.999H75.5V95.166H82.5V101.999ZM75.5 95.167H68.5V88.334H75.5V95.167ZM6.78516 88.2129H13.5703V94.998H6.78516L0 88.2129V81.4277H6.78516V88.2129ZM75.5 88.333H54.5V81.5H75.5V88.333ZM40.7148 27.1426H27.1445V40.7129L33.9297 47.498H20.833V47.499H16.374L16.373 47.5H33.9297L40.5957 54.166H61.168V47.5H68.335V61.167H61.668V67.833H33.9297V67.834H61.668V74.667H61.5V81.499H47.668V74.667H27.168V74.6406H21V74.667H13.5479L6.78906 81.4258V74.6406H6.78516V81.4258H0V74.6406L13.5 61.1406V47.5H13.5703L13.5693 47.499H13.5V47.4297L0 33.9297L0.00585937 33.9277H0V27.1426H13.5703V27.166H20.3594V20.3574H47.5L40.7148 27.1426ZM13.5703 67.834H20.3594V67.833H13.5703V67.834ZM15.6582 34H20.3594V33.999H15.6572L15.6582 34ZM33.9297 6.78516H27.1445V20.3555H20.3594V6.78516L27.1445 0H33.9297V6.78516ZM47.5 20.3555H40.7148V6.78516H47.5V20.3555Z" fill="#EEE2FC"/>
</svg>
