<svg width="34" height="41" viewBox="0 0 34 41" fill="none" xmlns="http://www.w3.org/2000/svg">
<path d="M33.1611 41H30.3477V38.2529H33.1611V41ZM13.6377 2.72754H10.9102V8.18262H16.3652V2.72754H19.0928V8.18262L16.3662 10.9101H10.9102V16.3652L16.3174 21.7724H24.5869V19.0928H27.4678V24.5859L27.4668 24.5869H24.7871V30.0137H24.7207V32.7597H30.3477V38.2529H27.5342V35.5068H21.9072V32.7597H19.1602V30.0137H10.9199V30.0029H5.45605L2.72852 32.7304V30.0029L2.72754 35.458H5.45508V38.1855H2.72754L0 35.458V30.0029L5.42676 24.5762V21.4375H5.45605V19.0947L0 13.6387V10.9101H5.45508V12.501L5.45605 12.5019L5.45508 10.9101H8.18262V2.72754L10.9102 0H13.6377V2.72754Z" fill="#2A2A2A"/>
</svg>
