<svg width="66" height="15" viewBox="0 0 66 15" fill="none" xmlns="http://www.w3.org/2000/svg">
<path d="M1 6.36328C0.447715 6.36328 0 6.811 0 7.36328C0 7.91557 0.447715 8.36328 1 8.36328V7.36328V6.36328ZM65.7071 8.07039C66.0976 7.67986 66.0976 7.0467 65.7071 6.65617L59.3431 0.292213C58.9526 -0.0983109 58.3195 -0.0983109 57.9289 0.292213C57.5384 0.682738 57.5384 1.3159 57.9289 1.70643L63.5858 7.36328L57.9289 13.0201C57.5384 13.4107 57.5384 14.0438 57.9289 14.4343C58.3195 14.8249 58.9526 14.8249 59.3431 14.4343L65.7071 8.07039ZM1 7.36328V8.36328H65V7.36328V6.36328H1V7.36328Z" fill="#2A2A2A"/>
</svg>
