<svg width="67" height="61" viewBox="0 0 67 61" fill="none" xmlns="http://www.w3.org/2000/svg">
<g clip-path="url(#clip0_1662_129)">
<path d="M16.2195 6.99414L31.7561 11.0958L19.0732 12.9888L10.8293 23.4006L29.2195 47.6947L1 23.4006L16.2195 6.99414Z" fill="black"/>
<path d="M44.7575 1L24.4648 4.47059L41.5868 6.99465L52.3673 20.5615L24.4648 60L66.0014 21.1925L44.7575 1Z" fill="black"/>
<path d="M16.2195 6.99414L31.7561 11.0958L19.0732 12.9888L10.8293 23.4006L29.2195 47.6947L1 23.4006L16.2195 6.99414Z" stroke="black"/>
<path d="M44.7575 1L24.4648 4.47059L41.5868 6.99465L52.3673 20.5615L24.4648 60L66.0014 21.1925L44.7575 1Z" stroke="black"/>
</g>
<defs>
<clipPath id="clip0_1662_129">
<rect width="67" height="61" fill="white"/>
</clipPath>
</defs>
</svg>
