<svg width="16" height="18" viewBox="0 0 16 18" fill="none" xmlns="http://www.w3.org/2000/svg">
<g clip-path="url(#clip0_1662_390)">
<path d="M9.2824 11.9768C9.42697 12.0479 9.58984 12.0642 9.74418 12.0228C9.89853 11.9815 10.0351 11.8851 10.1315 11.7495L10.38 11.4008C10.5104 11.2145 10.6795 11.0633 10.8739 10.9591C11.0683 10.855 11.2827 10.8008 11.5 10.8008H13.6C13.9713 10.8008 14.3274 10.9588 14.5899 11.2401C14.8525 11.5214 15 11.9029 15 12.3008V14.5508C15 14.9486 14.8525 15.3301 14.5899 15.6114C14.3274 15.8927 13.9713 16.0508 13.6 16.0508C10.2583 16.0508 7.05341 14.6285 4.69045 12.0967C2.3275 9.56498 1 6.1312 1 2.55078C1 2.15295 1.1475 1.77142 1.41005 1.49012C1.6726 1.20881 2.0287 1.05078 2.4 1.05078H4.5C4.8713 1.05078 5.2274 1.20881 5.48995 1.49012C5.7525 1.77142 5.9 2.15295 5.9 2.55078V4.80078C5.9 5.03365 5.8494 5.26332 5.7522 5.4716C5.655 5.67988 5.51387 5.86106 5.34 6.00078L5.0124 6.26403C4.88389 6.36916 4.79331 6.51872 4.75605 6.68729C4.71879 6.85587 4.73715 7.03306 4.808 7.18878C5.76468 9.27068 7.3381 10.9544 9.2824 11.9768Z" stroke="#5D35B5" stroke-width="2" stroke-linecap="round" stroke-linejoin="round"/>
</g>
<defs>
<clipPath id="clip0_1662_390">
<rect width="16" height="18" fill="white"/>
</clipPath>
</defs>
</svg>
