<svg width="41" height="41" viewBox="0 0 41 41" fill="none" xmlns="http://www.w3.org/2000/svg">
<path d="M20.5 0.5C31.5457 0.5 40.5 9.4543 40.5 20.5C40.5 31.5457 31.5457 40.5 20.5 40.5C9.4543 40.5 0.5 31.5457 0.5 20.5C0.5 9.4543 9.4543 0.5 20.5 0.5Z" stroke="#6B34A5"/>
<g clip-path="url(#clip0_1666_50)">
<path d="M22.374 24.3752C22.5289 24.4464 22.7034 24.4626 22.8688 24.4213C23.0341 24.38 23.1805 24.2836 23.2838 24.148L23.55 23.7992C23.6897 23.6129 23.8709 23.4617 24.0792 23.3576C24.2875 23.2534 24.5171 23.1992 24.75 23.1992H27C27.3978 23.1992 27.7794 23.3573 28.0607 23.6386C28.342 23.9199 28.5 24.3014 28.5 24.6992V26.9492C28.5 27.347 28.342 27.7286 28.0607 28.0099C27.7794 28.2912 27.3978 28.4492 27 28.4492C23.4196 28.4492 19.9858 27.0269 17.4541 24.4952C14.9223 21.9634 13.5 18.5296 13.5 14.9492C13.5 14.5514 13.658 14.1699 13.9393 13.8886C14.2206 13.6073 14.6022 13.4492 15 13.4492H17.25C17.6478 13.4492 18.0294 13.6073 18.3107 13.8886C18.592 14.1699 18.75 14.5514 18.75 14.9492V17.1992C18.75 17.4321 18.6958 17.6618 18.5916 17.87C18.4875 18.0783 18.3363 18.2595 18.15 18.3992L17.799 18.6625C17.6613 18.7676 17.5643 18.9172 17.5243 19.0857C17.4844 19.2543 17.5041 19.4315 17.58 19.5872C18.605 21.6691 20.2908 23.3528 22.374 24.3752Z" fill="black" stroke="black" stroke-width="2" stroke-linecap="round" stroke-linejoin="round"/>
</g>
<defs>
<clipPath id="clip0_1666_50">
<rect width="18" height="18" fill="white" transform="translate(12 11.9492)"/>
</clipPath>
</defs>
</svg>
